<?xml version="1.0" encoding="UTF-8" standalone="no"?><!DOCTYPE svg PUBLIC "-//W3C//DTD SVG 1.1//EN" "http://www.w3.org/Graphics/SVG/1.1/DTD/svg11.dtd"><svg width="100%" height="100%" viewBox="0 0 480 150" version="1.1" xmlns="http://www.w3.org/2000/svg" xmlns:xlink="http://www.w3.org/1999/xlink" xml:space="preserve" xmlns:serif="http://www.serif.com/" style="fill-rule:evenodd;clip-rule:evenodd;stroke-linejoin:round;stroke-miterlimit:2;"><g><path d="M22.67,4.093l0,44.412l-8.485,0l0,-44.412l8.485,0Zm-22.67,3.779l0,-7.822l36.855,-0l0,7.822l-36.855,-0Z" style="fill-rule:nonzero;"/><path d="M43.153,48.505l-8.75,0l17.5,-48.455l8.683,-0l17.5,48.455l-8.949,0l-3.911,-11.202l-18.096,-0l-3.977,11.202Zm11.998,-34.005l-5.568,15.644l13.191,-0l-5.568,-15.644c-0.177,-0.663 -0.376,-1.325 -0.597,-1.988c-0.221,-0.663 -0.354,-1.238 -0.398,-1.724c-0.088,0.442 -0.232,1.006 -0.431,1.691c-0.198,0.685 -0.408,1.358 -0.629,2.021Z" style="fill-rule:nonzero;"/><path d="M92.669,0.05l-0,48.455l-8.485,0l0,-48.455l8.485,-0Zm10.672,31.751l-12.727,0l0,-7.557l10.937,0c2.917,0 5.138,-0.74 6.662,-2.22c1.525,-1.481 2.287,-3.546 2.287,-6.198c0,-2.651 -0.762,-4.684 -2.287,-6.098c-1.524,-1.414 -3.701,-2.122 -6.529,-2.122l-11.865,0l-0,-7.556l13.522,-0c3.27,-0 6.099,0.663 8.485,1.988c2.386,1.326 4.242,3.171 5.568,5.535c1.326,2.365 1.989,5.138 1.989,8.319c-0,3.094 -0.663,5.845 -1.989,8.253c-1.326,2.408 -3.182,4.287 -5.568,5.634c-2.386,1.348 -5.215,2.022 -8.485,2.022Z" style="fill-rule:nonzero;"/><path d="M135.026,0.05l0,48.455l-8.484,0l-0,-48.455l8.484,-0Zm10.672,31.751l-12.727,0l0,-7.557l10.938,0c2.916,0 5.137,-0.74 6.662,-2.22c1.524,-1.481 2.286,-3.546 2.286,-6.198c0,-2.651 -0.762,-4.684 -2.286,-6.098c-1.525,-1.414 -3.701,-2.122 -6.53,-2.122l-11.865,0l-0,-7.556l13.522,-0c3.271,-0 6.099,0.663 8.485,1.988c2.386,1.326 4.243,3.171 5.568,5.535c1.326,2.365 1.989,5.138 1.989,8.319c-0,3.094 -0.663,5.845 -1.989,8.253c-1.325,2.408 -3.182,4.287 -5.568,5.634c-2.386,1.348 -5.214,2.022 -8.485,2.022Z" style="fill-rule:nonzero;"/><path d="M198.993,48.505l-30.094,0l-0,-48.455l30.094,-0l0,7.822l-24.592,-0l2.983,-2.718l-0,15.18l19.355,-0l0,7.49l-19.355,-0l-0,15.577l-2.983,-2.717l24.592,-0l0,7.821Z" style="fill-rule:nonzero;"/><path d="M239.693,48.505l-34.867,0l0,-7.888l23.93,-32.745l-23.399,-0l-0,-7.822l33.938,-0l0,7.556l-24.128,33.078l24.526,-0l0,7.821Z" style="fill-rule:nonzero;"/><path d="M278.67,48.505l-34.867,0l-0,-7.888l23.93,-32.745l-23.4,-0l0,-7.822l33.939,-0l0,7.556l-24.128,33.078l24.526,-0l-0,7.821Z" style="fill-rule:nonzero;"/><path d="M316.188,48.505l-30.094,0l-0,-48.455l30.094,-0l0,7.822l-24.592,-0l2.983,-2.718l-0,15.18l19.355,-0l0,7.49l-19.355,-0l-0,15.577l-2.983,-2.717l24.592,-0l0,7.821Z" style="fill-rule:nonzero;"/><path d="M333.82,48.505l-8.484,0l-0,-48.455l18.494,-0c5.48,-0 9.755,1.326 12.826,3.977c3.072,2.651 4.607,6.364 4.607,11.136c0,3.226 -0.74,5.977 -2.22,8.253c-1.481,2.276 -3.657,4.01 -6.53,5.203l9.214,19.886l-9.28,0l-8.219,-18.096l-10.408,0l0,18.096Zm0,-40.899l0,15.313l10.01,-0c2.695,-0 4.795,-0.685 6.297,-2.055c1.503,-1.37 2.254,-3.27 2.254,-5.701c-0,-2.43 -0.751,-4.297 -2.254,-5.601c-1.502,-1.304 -3.602,-1.956 -6.297,-1.956l-10.01,0Z" style="fill-rule:nonzero;"/><rect x="369.748" y="0.05" width="8.485" height="48.456" style="fill-rule:nonzero;"/><path d="M66.563,147.936l-63.923,-0l0,-14.462l43.871,-60.034l-42.898,0l-0,-14.34l62.221,0l-0,13.854l-44.236,60.642l44.965,-0l0,14.34Z" style="fill-rule:nonzero;"/><path d="M160.503,103.457c-0,8.993 -1.823,16.953 -5.469,23.88c-3.646,6.927 -8.71,12.335 -15.191,16.224c-6.481,3.889 -13.975,5.833 -22.482,5.833c-8.426,-0 -15.88,-1.944 -22.361,-5.833c-6.481,-3.889 -11.525,-9.277 -15.13,-16.163c-3.605,-6.887 -5.408,-14.826 -5.408,-23.819c0,-9.074 1.823,-17.075 5.469,-24.002c3.646,-6.927 8.689,-12.334 15.13,-16.223c6.441,-3.889 13.915,-5.834 22.421,-5.834c8.507,0 15.981,1.945 22.422,5.834c6.441,3.889 11.484,9.276 15.13,16.163c3.646,6.886 5.469,14.866 5.469,23.94Zm-16.285,0c0,-6.319 -1.094,-11.788 -3.281,-16.406c-2.188,-4.618 -5.266,-8.203 -9.236,-10.755c-3.97,-2.552 -8.709,-3.828 -14.219,-3.828c-5.428,0 -10.147,1.276 -14.157,3.828c-4.011,2.552 -7.11,6.137 -9.297,10.755c-2.188,4.618 -3.281,10.087 -3.281,16.406c-0,6.32 1.093,11.808 3.281,16.467c2.187,4.658 5.286,8.243 9.297,10.755c4.01,2.512 8.729,3.767 14.157,3.767c5.51,0 10.249,-1.276 14.219,-3.828c3.97,-2.552 7.048,-6.157 9.236,-10.816c2.187,-4.658 3.281,-10.106 3.281,-16.345Z" style="fill-rule:nonzero;"/><path d="M190.398,147.936l-15.312,-0l-0,-88.836l15.433,0l46.18,69.878l-4.496,-0l-0,-69.878l15.312,0l0,88.836l-15.312,-0l-46.302,-69.756l4.497,-0l-0,69.756Z" style="fill-rule:nonzero;"/><path d="M304.754,149.394c-8.669,-0 -16.183,-1.884 -22.543,-5.651c-6.36,-3.767 -11.302,-9.074 -14.826,-15.92c-3.525,-6.846 -5.287,-14.927 -5.287,-24.244c0,-9.236 1.803,-17.297 5.408,-24.184c3.605,-6.886 8.689,-12.234 15.252,-16.041c6.562,-3.808 14.137,-5.712 22.725,-5.712c7.048,-0 13.368,1.296 18.958,3.889c5.59,2.592 10.208,6.218 13.854,10.876c3.646,4.659 5.955,10.188 6.927,16.589l-16.406,-0c-1.539,-5.185 -4.395,-9.216 -8.568,-12.092c-4.172,-2.876 -9.256,-4.314 -15.251,-4.314c-5.347,-0 -10.026,1.255 -14.036,3.767c-4.011,2.511 -7.11,6.076 -9.297,10.694c-2.188,4.618 -3.281,10.127 -3.281,16.528c-0,6.157 1.093,11.565 3.281,16.223c2.187,4.659 5.286,8.264 9.297,10.816c4.01,2.552 8.689,3.828 14.036,3.828c6.076,0 11.281,-1.458 15.616,-4.375c4.334,-2.916 7.231,-6.846 8.689,-11.788l16.163,0c-1.134,6.158 -3.585,11.586 -7.352,16.285c-3.768,4.699 -8.507,8.345 -14.219,10.937c-5.712,2.593 -12.092,3.889 -19.14,3.889Z" style="fill-rule:nonzero;"/><path d="M373.385,147.936l-26.705,-0l53.409,-147.886l26.502,-0l53.409,147.886l-27.311,-0l-11.936,-34.19l-55.23,-0l-12.138,34.19Zm36.617,-103.783l-16.994,47.744l40.259,-0l-16.993,-47.744c-0.54,-2.024 -1.147,-4.047 -1.821,-6.07c-0.675,-2.023 -1.079,-3.776 -1.214,-5.26c-0.27,1.349 -0.708,3.069 -1.315,5.159c-0.607,2.091 -1.248,4.147 -1.922,6.171Z" style="fill-rule:nonzero;"/></g></svg>